<svg width="25" height="24" viewBox="0 0 25 24" fill="none" xmlns="http://www.w3.org/2000/svg">
<g clip-path="url(#clip0_490_2877)">
<path d="M21.933 4.86126L15.933 20.3613C15.8737 20.5148 15.7773 20.6513 15.6526 20.7586C15.5278 20.866 15.3785 20.9409 15.2179 20.9767C15.0572 21.0125 14.8902 21.0081 14.7317 20.9639C14.5731 20.9197 14.4279 20.837 14.309 20.7233L10.927 17.4883L8.85301 19.5613C8.78303 19.631 8.69394 19.6785 8.59701 19.6977C8.50007 19.7168 8.39962 19.7068 8.30836 19.669C8.21709 19.6311 8.13909 19.567 8.08421 19.4848C8.02933 19.4027 8.00003 19.3061 8.00001 19.2073V14.6883L2.80901 9.72326C2.68021 9.60003 2.58669 9.44463 2.53813 9.27312C2.48957 9.10162 2.48773 8.92025 2.53281 8.7478C2.57789 8.57534 2.66824 8.41807 2.79451 8.29227C2.92079 8.16646 3.07839 8.07669 3.25101 8.03226L20.751 3.53226C20.9289 3.48668 21.116 3.49098 21.2916 3.54469C21.4672 3.59839 21.6247 3.69943 21.7467 3.83672C21.8687 3.974 21.9505 4.14224 21.9832 4.32296C22.0159 4.50369 21.9982 4.68993 21.932 4.86126H21.933ZM19.5 6.00126L8.53201 13.1523L10.267 14.8123L19.5 6.00126Z" fill="white"/>
</g>
<defs>
<clipPath id="clip0_490_2877">
<rect width="24" height="24" fill="white" transform="translate(0.5)"/>
</clipPath>
</defs>
</svg>
