<svg width="38" height="39" viewBox="0 0 38 39" fill="none" xmlns="http://www.w3.org/2000/svg">
<rect opacity="0.1" x="1.5" y="2" width="35" height="35" rx="17.5" fill="#44A4F2" stroke="white" stroke-width="3"/>
<path d="M13.0014 21.4343V21.2809C13.0275 20.7898 13.1825 20.314 13.4509 19.9008C13.8985 19.3993 14.2062 18.7902 14.3434 18.1339C14.377 17.6339 14.3434 17.1205 14.377 16.6138C14.6186 14.1802 17.0276 12.5 19.3359 12.5H19.403C21.7517 12.5 24.1003 14.1802 24.3553 16.6138C24.4023 17.1138 24.3553 17.6339 24.3955 18.1339C24.5294 18.7913 24.8375 19.4013 25.288 19.9008C25.5681 20.3093 25.7284 20.7871 25.751 21.2809V21.4343C25.7552 22.0995 25.5168 22.7437 25.08 23.2478C24.5196 23.8455 23.7579 24.218 22.9394 24.2946C20.5492 24.6013 18.1293 24.6013 15.7392 24.2946C14.9302 24.2117 14.179 23.8397 13.6254 23.2478C13.2023 22.7388 12.9804 22.0941 13.0014 21.4343Z" fill="#44A4F2"/>
<path opacity="0.4" d="M20.2485 25.3215C19.7721 25.2881 19.3829 25.3215 18.9937 25.3215C18.6077 25.3148 18.2223 25.3551 17.8462 25.4415C17.5241 25.5148 17.1752 25.6882 17.1752 26.0549C17.209 26.4093 17.4011 26.7299 17.6986 26.9283C18.2716 27.3659 18.9937 27.5644 19.7117 27.4817C20.4095 27.4302 21.0474 27.0705 21.4497 26.5016C21.672 26.2133 21.6213 25.8013 21.3356 25.5748C20.9973 25.4095 20.6255 25.3228 20.2485 25.3215Z" fill="#44A4F2"/>
</svg>
