<svg width="8" height="14" viewBox="0 0 8 14" fill="none" xmlns="http://www.w3.org/2000/svg">
<path d="M0.307617 6.99656C0.307617 7.11702 0.329379 7.22822 0.372904 7.33014C0.421264 7.43207 0.493804 7.52936 0.590525 7.62202L6.24142 12.9176C6.40585 13.0751 6.60413 13.1539 6.83626 13.1539C6.99584 13.1539 7.13851 13.1168 7.26424 13.0427C7.39482 12.9732 7.49879 12.8759 7.57617 12.7508C7.65354 12.6304 7.69223 12.496 7.69223 12.3477C7.69223 12.1253 7.60277 11.9284 7.42383 11.757L2.3315 6.99656L7.42383 2.23611C7.60277 2.06468 7.69223 1.8701 7.69223 1.65234C7.69223 1.49945 7.65354 1.36278 7.57617 1.24232C7.49879 1.12186 7.39482 1.02688 7.26424 0.957385C7.13851 0.883256 6.99584 0.846191 6.83626 0.846191C6.60413 0.846191 6.40585 0.922637 6.24142 1.07553L0.590525 6.3711C0.493804 6.46376 0.421264 6.56106 0.372904 6.66298C0.329379 6.76491 0.307617 6.8761 0.307617 6.99656Z" fill="#031D3C"/>
</svg>
