<svg width="15" height="14" viewBox="0 0 15 14" fill="none" xmlns="http://www.w3.org/2000/svg">
<g clip-path="url(#clip0_809_2307)">
<path fill-rule="evenodd" clip-rule="evenodd" d="M14.137 1.1979C14.2382 1.28154 14.322 1.38431 14.3836 1.50034C14.4451 1.61638 14.4832 1.74339 14.4956 1.87414C14.5081 2.00489 14.4946 2.13681 14.4561 2.26237C14.4175 2.38792 14.3546 2.50465 14.271 2.6059L6.23097 12.3359L6.22797 12.3379C6.04521 12.5577 5.81573 12.7339 5.55624 12.8538C5.29675 12.9737 5.01379 13.0342 4.72797 13.0309C4.43787 13.0274 4.15233 12.9582 3.89274 12.8287C3.63314 12.6992 3.40622 12.5126 3.22897 12.2829L3.22797 12.2809L0.709971 9.0449C0.625894 8.94162 0.563292 8.8226 0.525838 8.6948C0.488384 8.567 0.476833 8.43301 0.491863 8.30069C0.506893 8.16837 0.548201 8.04039 0.613363 7.92425C0.678525 7.80811 0.766228 7.70615 0.871325 7.62436C0.976423 7.54258 1.0968 7.4826 1.22539 7.44797C1.35397 7.41333 1.48819 7.40473 1.62014 7.42266C1.7521 7.4406 1.87915 7.48471 1.99383 7.55241C2.10851 7.62011 2.20851 7.71003 2.28797 7.8169L4.75197 10.9839L12.728 1.3319C12.8116 1.23064 12.9144 1.14684 13.0304 1.08531C13.1464 1.02377 13.2735 0.985692 13.4042 0.973248C13.535 0.960805 13.6669 0.97424 13.7924 1.01279C13.918 1.05133 14.0347 1.11423 14.136 1.1979H14.137Z" fill="#679C0D"/>
</g>
<defs>
<clipPath id="clip0_809_2307">
<rect width="14" height="14" fill="white" transform="translate(0.5)"/>
</clipPath>
</defs>
</svg>
