<svg width="89" height="76" viewBox="0 0 89 76" fill="none" xmlns="http://www.w3.org/2000/svg">
<path d="M40.2083 23.333L76.6875 23.333C78.3948 23.333 80.0322 24.0112 81.2395 25.2185C82.4468 26.4258 83.125 28.0632 83.125 29.7705C83.125 31.4778 82.4468 33.1152 81.2395 34.3225C80.0322 35.5298 78.3948 36.208 76.6875 36.208L44.5 36.208M46.6458 36.208H55.2292C56.9365 36.208 58.5739 36.8862 59.7812 38.0935C60.9884 39.3008 61.6667 40.9382 61.6667 42.6455C61.6667 44.3528 60.9884 45.9902 59.7812 47.1975C58.5739 48.4048 56.9365 49.083 55.2292 49.083L44.5 49.083M50.9375 49.083C52.6448 49.083 54.2822 49.7612 55.4895 50.9685C56.6968 52.1758 57.375 53.8132 57.375 55.5205C57.375 57.2278 56.6968 58.8652 55.4895 60.0725C54.2822 61.2798 52.6448 61.958 50.9375 61.958H44.5" stroke="white" stroke-width="2" stroke-linecap="round" stroke-linejoin="round"/>
<path d="M46.6458 61.9583C48.3531 61.9583 49.9905 62.6366 51.1978 63.8438C52.4051 65.0511 53.0833 66.6885 53.0833 68.3958C53.0833 70.1032 52.4051 71.7406 51.1978 72.9478C49.9905 74.1551 48.3531 74.8333 46.6458 74.8333H27.3333C20.504 74.8333 13.9543 72.1204 9.12528 67.2913C4.29622 62.4623 1.58329 55.9127 1.58329 49.0833L1.58329 40.5L1.58329 41.3927C1.58257 37.1282 2.64098 32.9303 4.66348 29.1759C6.68598 25.4216 9.60925 22.2283 13.1708 19.8828L14.4583 19.0417C16.5126 17.7027 24.7068 13.0019 39.041 4.93925C40.5021 4.11718 42.2264 3.89759 43.847 4.32718C45.4676 4.75677 46.8566 5.80165 47.7187 7.23958C48.6355 8.77184 49.0151 10.5661 48.7974 12.3383C48.5798 14.1106 47.7773 15.7597 46.517 17.0246L40.2083 23.3333M83.125 10.4583L87.4166 6.16667M65.9583 6.16667V1.875M83.125 49.0833L87.4166 53.375M70.25 53.375V57.6667" stroke="white" stroke-width="2" stroke-linecap="round" stroke-linejoin="round"/>
</svg>
