<svg width="89" height="76" viewBox="0 0 89 76" fill="none" xmlns="http://www.w3.org/2000/svg">
<path d="M48.7917 23.333L12.3125 23.333C10.6052 23.333 8.96777 24.0112 7.7605 25.2185C6.55323 26.4258 5.875 28.0632 5.875 29.7705C5.875 31.4778 6.55323 33.1152 7.7605 34.3225C8.96777 35.5298 10.6052 36.208 12.3125 36.208H44.5M42.3542 36.208H33.7708C32.0635 36.208 30.4261 36.8862 29.2188 38.0935C28.0116 39.3008 27.3333 40.9382 27.3333 42.6455C27.3333 44.3528 28.0116 45.9902 29.2188 47.1975C30.4261 48.4048 32.0635 49.083 33.7708 49.083H44.5M38.0625 49.083C36.3552 49.083 34.7178 49.7612 33.5105 50.9685C32.3032 52.1758 31.625 53.8132 31.625 55.5205C31.625 57.2278 32.3032 58.8652 33.5105 60.0725C34.7178 61.2798 36.3552 61.958 38.0625 61.958H44.5" stroke="white" stroke-width="2" stroke-linecap="round" stroke-linejoin="round"/>
<path d="M42.3542 61.9583C40.6469 61.9583 39.0095 62.6366 37.8022 63.8438C36.5949 65.0511 35.9167 66.6885 35.9167 68.3958C35.9167 70.1032 36.5949 71.7406 37.8022 72.9478C39.0095 74.1551 40.6469 74.8333 42.3542 74.8333H61.6667C68.496 74.8333 75.0457 72.1204 79.8747 67.2913C84.7038 62.4623 87.4167 55.9127 87.4167 49.0833V40.5V41.3927C87.4174 37.1282 86.359 32.9303 84.3365 29.1759C82.314 25.4216 79.3907 22.2283 75.8292 19.8828L74.5417 19.0417C72.4874 17.7027 64.2932 13.0019 49.959 4.93925C48.4979 4.11718 46.7736 3.89759 45.153 4.32718C43.5324 4.75677 42.1434 5.80165 41.2813 7.23958C40.3645 8.77184 39.9849 10.5661 40.2026 12.3383C40.4202 14.1106 41.2227 15.7597 42.483 17.0246L48.7917 23.3333M5.87504 10.4583L1.58337 6.16667M23.0417 6.16667V1.875M5.87504 49.0833L1.58337 53.375M18.75 53.375V57.6667" stroke="white" stroke-width="2" stroke-linecap="round" stroke-linejoin="round"/>
</svg>
