<svg width="16" height="16" viewBox="0 0 16 16" fill="none" xmlns="http://www.w3.org/2000/svg">
<g clip-path="url(#clip0_809_2391)">
<path fill-rule="evenodd" clip-rule="evenodd" d="M9.425 1.75C9.68735 1.75007 9.94303 1.83268 10.1558 1.98613C10.3686 2.13958 10.5277 2.35609 10.6106 2.605L10.95 3.625H13C13.1658 3.625 13.3247 3.69085 13.4419 3.80806C13.5592 3.92527 13.625 4.08424 13.625 4.25C13.625 4.41576 13.5592 4.57473 13.4419 4.69194C13.3247 4.80915 13.1658 4.875 13 4.875L12.9981 4.91937L12.4562 12.5088C12.4224 12.9816 12.2107 13.4241 11.8638 13.7472C11.5168 14.0703 11.0603 14.2499 10.5863 14.25H5.41375C4.93966 14.2499 4.48319 14.0703 4.13623 13.7472C3.78927 13.4241 3.57757 12.9816 3.54375 12.5088L3.00187 4.91875L3 4.875C2.83424 4.875 2.67527 4.80915 2.55806 4.69194C2.44085 4.57473 2.375 4.41576 2.375 4.25C2.375 4.08424 2.44085 3.92527 2.55806 3.80806C2.67527 3.69085 2.83424 3.625 3 3.625H5.05L5.38937 2.605C5.47231 2.35599 5.63152 2.13941 5.84444 1.98595C6.05735 1.83249 6.31317 1.74994 6.57562 1.75H9.425ZM6.125 6.75C5.97192 6.75002 5.82416 6.80622 5.70977 6.90795C5.59537 7.00967 5.52229 7.14984 5.50437 7.30188L5.5 7.375V11.125C5.50018 11.2843 5.56117 11.4375 5.67053 11.5534C5.77989 11.6692 5.92935 11.7389 6.08837 11.7482C6.2474 11.7576 6.40399 11.7058 6.52614 11.6036C6.6483 11.5013 6.72681 11.3563 6.74563 11.1981L6.75 11.125V7.375C6.75 7.20924 6.68415 7.05027 6.56694 6.93306C6.44973 6.81585 6.29076 6.75 6.125 6.75ZM9.875 6.75C9.70924 6.75 9.55027 6.81585 9.43306 6.93306C9.31585 7.05027 9.25 7.20924 9.25 7.375V11.125C9.25 11.2908 9.31585 11.4497 9.43306 11.5669C9.55027 11.6842 9.70924 11.75 9.875 11.75C10.0408 11.75 10.1997 11.6842 10.3169 11.5669C10.4342 11.4497 10.5 11.2908 10.5 11.125V7.375C10.5 7.20924 10.4342 7.05027 10.3169 6.93306C10.1997 6.81585 10.0408 6.75 9.875 6.75ZM9.425 3H6.575L6.36688 3.625H9.63312L9.425 3Z" fill="#E94033"/>
</g>
<defs>
<clipPath id="clip0_809_2391">
<rect width="15" height="15" fill="white" transform="translate(0.5 0.5)"/>
</clipPath>
</defs>
</svg>
