<svg width="30" height="31" viewBox="0 0 30 31" fill="none" xmlns="http://www.w3.org/2000/svg">
<path d="M9.6875 3.625C9.6875 3.37636 9.58873 3.1379 9.41292 2.96209C9.2371 2.78627 8.99865 2.6875 8.75 2.6875C8.50136 2.6875 8.26291 2.78627 8.08709 2.96209C7.91128 3.1379 7.8125 3.37636 7.8125 3.625V5.6C6.0125 5.74375 4.8325 6.09625 3.965 6.965C3.09625 7.8325 2.74375 9.01375 2.59875 10.8125H27.4013C27.2563 9.0125 26.9038 7.8325 26.035 6.965C25.1675 6.09625 23.9863 5.74375 22.1875 5.59875V3.625C22.1875 3.37636 22.0887 3.1379 21.9129 2.96209C21.7371 2.78627 21.4986 2.6875 21.25 2.6875C21.0014 2.6875 20.7629 2.78627 20.5871 2.96209C20.4113 3.1379 20.3125 3.37636 20.3125 3.625V5.51625C19.4813 5.5 18.5488 5.5 17.5 5.5H12.5C11.4513 5.5 10.5188 5.5 9.6875 5.51625V3.625Z" fill="#5686E1"/>
<path fill-rule="evenodd" clip-rule="evenodd" d="M2.5 15.5C2.5 14.4513 2.5 13.5188 2.51625 12.6875H27.4837C27.5 13.5188 27.5 14.4513 27.5 15.5V18C27.5 22.7137 27.5 25.0712 26.035 26.535C24.5712 28 22.2137 28 17.5 28H12.5C7.78625 28 5.42875 28 3.965 26.535C2.5 25.0712 2.5 22.7137 2.5 18V15.5ZM21.25 18C21.5815 18 21.8995 17.8683 22.1339 17.6339C22.3683 17.3995 22.5 17.0815 22.5 16.75C22.5 16.4185 22.3683 16.1005 22.1339 15.8661C21.8995 15.6317 21.5815 15.5 21.25 15.5C20.9185 15.5 20.6005 15.6317 20.3661 15.8661C20.1317 16.1005 20 16.4185 20 16.75C20 17.0815 20.1317 17.3995 20.3661 17.6339C20.6005 17.8683 20.9185 18 21.25 18ZM21.25 23C21.5815 23 21.8995 22.8683 22.1339 22.6339C22.3683 22.3995 22.5 22.0815 22.5 21.75C22.5 21.4185 22.3683 21.1005 22.1339 20.8661C21.8995 20.6317 21.5815 20.5 21.25 20.5C20.9185 20.5 20.6005 20.6317 20.3661 20.8661C20.1317 21.1005 20 21.4185 20 21.75C20 22.0815 20.1317 22.3995 20.3661 22.6339C20.6005 22.8683 20.9185 23 21.25 23ZM16.25 16.75C16.25 17.0815 16.1183 17.3995 15.8839 17.6339C15.6495 17.8683 15.3315 18 15 18C14.6685 18 14.3505 17.8683 14.1161 17.6339C13.8817 17.3995 13.75 17.0815 13.75 16.75C13.75 16.4185 13.8817 16.1005 14.1161 15.8661C14.3505 15.6317 14.6685 15.5 15 15.5C15.3315 15.5 15.6495 15.6317 15.8839 15.8661C16.1183 16.1005 16.25 16.4185 16.25 16.75ZM16.25 21.75C16.25 22.0815 16.1183 22.3995 15.8839 22.6339C15.6495 22.8683 15.3315 23 15 23C14.6685 23 14.3505 22.8683 14.1161 22.6339C13.8817 22.3995 13.75 22.0815 13.75 21.75C13.75 21.4185 13.8817 21.1005 14.1161 20.8661C14.3505 20.6317 14.6685 20.5 15 20.5C15.3315 20.5 15.6495 20.6317 15.8839 20.8661C16.1183 21.1005 16.25 21.4185 16.25 21.75ZM8.75 18C9.08152 18 9.39946 17.8683 9.63388 17.6339C9.8683 17.3995 10 17.0815 10 16.75C10 16.4185 9.8683 16.1005 9.63388 15.8661C9.39946 15.6317 9.08152 15.5 8.75 15.5C8.41848 15.5 8.10054 15.6317 7.86612 15.8661C7.6317 16.1005 7.5 16.4185 7.5 16.75C7.5 17.0815 7.6317 17.3995 7.86612 17.6339C8.10054 17.8683 8.41848 18 8.75 18ZM8.75 23C9.08152 23 9.39946 22.8683 9.63388 22.6339C9.8683 22.3995 10 22.0815 10 21.75C10 21.4185 9.8683 21.1005 9.63388 20.8661C9.39946 20.6317 9.08152 20.5 8.75 20.5C8.41848 20.5 8.10054 20.6317 7.86612 20.8661C7.6317 21.1005 7.5 21.4185 7.5 21.75C7.5 22.0815 7.6317 22.3995 7.86612 22.6339C8.10054 22.8683 8.41848 23 8.75 23Z" fill="#5686E1"/>
</svg>
