<svg width="13" height="13" viewBox="0 0 13 13" fill="none" xmlns="http://www.w3.org/2000/svg">
<path d="M11.2904 11.8279H1.61294C1.39251 11.8279 1.20972 11.6451 1.20972 11.4247C1.20972 11.2043 1.39251 11.0215 1.61294 11.0215H11.2904C11.5108 11.0215 11.6936 11.2043 11.6936 11.4247C11.6936 11.6451 11.5108 11.8279 11.2904 11.8279Z" fill="#5686E1"/>
<path d="M10.2259 1.87098C9.18285 0.827973 8.16134 0.801092 7.09145 1.87098L6.44091 2.52152C6.38715 2.57529 6.36564 2.66131 6.38715 2.73658C6.79575 4.16131 7.93553 5.30109 9.36027 5.70969C9.38177 5.71507 9.40328 5.72045 9.42478 5.72045C9.48392 5.72045 9.53768 5.69894 9.5807 5.65593L10.2259 5.00539C10.7581 4.47851 11.0162 3.96776 11.0162 3.45163C11.0216 2.91937 10.7635 2.40324 10.2259 1.87098Z" fill="#5686E1"/>
<path d="M8.39249 6.19892C8.23658 6.12365 8.08604 6.04838 7.94088 5.96236C7.8226 5.89247 7.7097 5.8172 7.59679 5.73656C7.50539 5.67742 7.39787 5.59139 7.29572 5.50537C7.28496 5.5 7.24733 5.46774 7.20432 5.42473C7.0269 5.27419 6.82798 5.08064 6.65056 4.86559C6.63443 4.85484 6.60755 4.8172 6.56991 4.76881C6.51615 4.7043 6.42475 4.59677 6.3441 4.47312C6.27959 4.39247 6.20432 4.27419 6.13443 4.15591C6.04841 4.01075 5.97314 3.86559 5.89787 3.71505C5.79918 3.50358 5.52163 3.44076 5.35661 3.60577L2.33335 6.62903C2.26346 6.69892 2.19894 6.83333 2.18281 6.92473L1.89249 8.98387C1.83873 9.34946 1.94088 9.69354 2.16669 9.92473C2.36023 10.1129 2.62905 10.2151 2.91937 10.2151C2.98389 10.2151 3.04841 10.2097 3.11292 10.1989L5.17744 9.9086C5.27421 9.89247 5.40862 9.82795 5.47314 9.75806L8.50138 6.72981C8.6631 6.5681 8.60234 6.28985 8.39249 6.19892Z" fill="#5686E1"/>
</svg>
