<svg width="22" height="22" viewBox="0 0 22 22" fill="none" xmlns="http://www.w3.org/2000/svg">
<path d="M10.9459 17.5001C11.325 17.5001 11.6457 17.369 11.9079 17.1068C12.17 16.8447 12.3007 16.5244 12.3 16.1459C12.2993 15.7675 12.1686 15.4468 11.9079 15.1839C11.6471 14.921 11.3265 14.7903 10.9459 14.7918C10.5652 14.7932 10.2449 14.9243 9.98494 15.185C9.72494 15.4457 9.59385 15.766 9.59169 16.1459C9.58952 16.5258 9.7206 16.8465 9.98494 17.1079C10.2493 17.3694 10.5696 17.5001 10.9459 17.5001ZM9.97086 13.3293H11.975C11.975 12.7334 12.0429 12.264 12.1787 11.9209C12.3145 11.5779 12.698 11.1084 13.3292 10.5126C13.7986 10.0431 14.1688 9.59609 14.4396 9.17142C14.7104 8.74675 14.8459 8.23686 14.8459 7.64175C14.8459 6.63064 14.4757 5.85425 13.7354 5.31259C12.9952 4.77092 12.1195 4.50009 11.1084 4.50009C10.0792 4.50009 9.2443 4.77092 8.60369 5.31259C7.96308 5.85425 7.51602 6.50425 7.26252 7.26259L9.05002 7.96675C9.1403 7.64175 9.3436 7.28967 9.65994 6.9105C9.97627 6.53134 10.4591 6.34175 11.1084 6.34175C11.6861 6.34175 12.1195 6.49992 12.4084 6.81625C12.6972 7.13259 12.8417 7.47998 12.8417 7.85842C12.8417 8.21953 12.7334 8.55825 12.5167 8.87459C12.3 9.19092 12.0292 9.48414 11.7042 9.75425C10.9097 10.4584 10.4222 10.9911 10.2417 11.3522C10.0611 11.7133 9.97086 12.3723 9.97086 13.3293ZM11 21.8334C9.50141 21.8334 8.09308 21.5492 6.77502 20.9808C5.45697 20.4124 4.31044 19.6404 3.33544 18.6647C2.36044 17.6889 1.58874 16.5424 1.02036 15.2251C0.451966 13.9078 0.167411 12.4994 0.166688 11.0001C0.165966 9.50075 0.450522 8.09242 1.02036 6.77509C1.59019 5.45775 2.36188 4.31123 3.33544 3.3355C4.30899 2.35978 5.45552 1.58809 6.77502 1.02042C8.09452 0.452754 9.50286 0.168198 11 0.166754C12.4972 0.165309 13.9055 0.449865 15.225 1.02042C16.5445 1.59098 17.6911 2.36267 18.6646 3.3355C19.6382 4.30834 20.4102 5.45486 20.9808 6.77509C21.5513 8.09531 21.8355 9.50364 21.8334 11.0001C21.8312 12.4965 21.5466 13.9049 20.9797 15.2251C20.4127 16.5453 19.6411 17.6918 18.6646 18.6647C17.6882 19.6375 16.5416 20.4096 15.225 20.9808C13.9084 21.5521 12.5001 21.8363 11 21.8334Z" fill="#5686E1"/>
</svg>
