<svg width="26" height="26" viewBox="0 0 26 26" fill="none" xmlns="http://www.w3.org/2000/svg">
<path d="M11.9166 1.08325H3.24998C2.05831 1.08325 1.08331 2.05825 1.08331 3.24992V16.2499L4.33331 12.9999H9.74998V11.9166C9.74998 9.53325 11.6891 7.58325 14.0833 7.58325V3.24992C14.0833 2.05825 13.1083 1.08325 11.9166 1.08325ZM11.9166 4.33325H10.2916C9.92331 5.62242 9.25165 6.82492 8.31998 7.86492L8.29831 7.88659L9.66331 9.24075L9.26248 10.3349L7.58331 8.66659L4.87498 11.3749L4.12748 10.5841L6.86831 7.88659C6.20631 7.15345 5.66511 6.31971 5.26498 5.41659H6.33748C6.67331 6.06659 7.08498 6.68409 7.58331 7.23659C8.34159 6.39439 8.9203 5.40652 9.28415 4.33325H3.24998V3.24992H7.04165V2.16659H8.12498V3.24992H11.9166V4.33325ZM22.75 9.74992H14.0833C12.8916 9.74992 11.9166 10.7249 11.9166 11.9166V19.4999C11.9166 20.6916 12.8916 21.6666 14.0833 21.6666H21.6666L24.9166 24.9166V11.9166C24.9166 10.7249 23.9416 9.74992 22.75 9.74992ZM21.2658 20.5833L20.345 18.1458H16.4883L15.5783 20.5833H13.9533L17.6041 10.8333H19.2291L22.8908 20.5833H21.2658ZM18.4166 12.9999L19.7383 16.5208H17.1058L18.4166 12.9999Z" fill="#5686E1"/>
</svg>
