<svg width="20" height="26" viewBox="0 0 20 26" fill="none" xmlns="http://www.w3.org/2000/svg">
<path d="M10 0C4.44271 0 0 4.33164 0 9.75C0 11.6238 0.572917 13.0711 1.56771 14.5387L8.94792 25.4566C9.17188 25.7867 9.55729 26 10 26C10.4427 26 10.8333 25.7816 11.0521 25.4566L18.4323 14.5387C19.4271 13.0711 20 11.6238 20 9.75C20 4.33164 15.5573 0 10 0ZM10 17.3266C5.70312 17.3266 2.22396 13.9293 2.22396 9.73477C2.22396 5.54531 5.70833 2.14297 10 2.14297C14.2969 2.14297 17.776 5.54023 17.776 9.73477C17.776 13.9293 14.2969 17.3266 10 17.3266ZM13.3333 8.66836H11.1094V5.41836C11.1094 4.81914 10.6146 4.33672 10 4.33672C9.38542 4.33672 8.89062 4.81914 8.89062 5.41836V9.75C8.89062 10.3492 9.39062 10.8316 10 10.8316H13.3333C13.9479 10.8316 14.4427 10.3492 14.4427 9.75C14.4427 9.15078 13.9479 8.66836 13.3333 8.66836Z" fill="#5686E1"/>
</svg>
