<svg width="26" height="26" viewBox="0 0 26 26" fill="none" xmlns="http://www.w3.org/2000/svg">
<path fill-rule="evenodd" clip-rule="evenodd" d="M10.9829 1.96615C11.4681 1.82059 11.9806 1.79048 12.4796 1.87822C12.9785 1.96596 13.4501 2.16913 13.8565 2.47151C14.263 2.77388 14.5931 3.16709 14.8206 3.61975C15.0481 4.0724 15.1666 4.57197 15.1667 5.07857V20.9212C15.1666 21.4278 15.0481 21.9274 14.8206 22.3801C14.5931 22.8327 14.263 23.2259 13.8565 23.5283C13.4501 23.8307 12.9785 24.0338 12.4796 24.1216C11.9806 24.2093 11.4681 24.1792 10.9829 24.0336L4.48285 22.0837C3.81346 21.8828 3.22663 21.4716 2.80941 20.911C2.39219 20.3503 2.1668 19.6701 2.16669 18.9712V7.02857C2.1668 6.32971 2.39219 5.6495 2.80941 5.08884C3.22663 4.52819 3.81346 4.11696 4.48285 3.91615L10.9829 1.96615ZM16.25 4.33324C16.25 4.04592 16.3642 3.77037 16.5673 3.5672C16.7705 3.36404 17.046 3.2499 17.3334 3.2499H20.5834C21.4453 3.2499 22.272 3.59231 22.8814 4.2018C23.4909 4.8113 23.8334 5.63795 23.8334 6.4999V7.58323C23.8334 7.87055 23.7192 8.1461 23.5161 8.34927C23.3129 8.55243 23.0373 8.66657 22.75 8.66657C22.4627 8.66657 22.1872 8.55243 21.984 8.34927C21.7808 8.1461 21.6667 7.87055 21.6667 7.58323V6.4999C21.6667 6.21258 21.5525 5.93703 21.3494 5.73387C21.1462 5.53071 20.8707 5.41657 20.5834 5.41657H17.3334C17.046 5.41657 16.7705 5.30243 16.5673 5.09927C16.3642 4.8961 16.25 4.62055 16.25 4.33324ZM22.75 17.3332C23.0373 17.3332 23.3129 17.4474 23.5161 17.6505C23.7192 17.8537 23.8334 18.1292 23.8334 18.4166V19.4999C23.8334 20.3619 23.4909 21.1885 22.8814 21.798C22.272 22.4075 21.4453 22.7499 20.5834 22.7499H17.3334C17.046 22.7499 16.7705 22.6358 16.5673 22.4326C16.3642 22.2294 16.25 21.9539 16.25 21.6666C16.25 21.3792 16.3642 21.1037 16.5673 20.9005C16.7705 20.6974 17.046 20.5832 17.3334 20.5832H20.5834C20.8707 20.5832 21.1462 20.4691 21.3494 20.2659C21.5525 20.0628 21.6667 19.7872 21.6667 19.4999V18.4166C21.6667 18.1292 21.7808 17.8537 21.984 17.6505C22.1872 17.4474 22.4627 17.3332 22.75 17.3332ZM9.75002 11.9166C9.4627 11.9166 9.18715 12.0307 8.98399 12.2339C8.78082 12.437 8.66669 12.7126 8.66669 12.9999C8.66669 13.2872 8.78082 13.5628 8.98399 13.7659C9.18715 13.9691 9.4627 14.0832 9.75002 14.0832H9.7511C10.0384 14.0832 10.314 13.9691 10.5171 13.7659C10.7203 13.5628 10.8344 13.2872 10.8344 12.9999C10.8344 12.7126 10.7203 12.437 10.5171 12.2339C10.314 12.0307 10.0384 11.9166 9.7511 11.9166H9.75002Z" fill="#5686E1"/>
<path d="M17.3334 12.9999H22.75M22.75 12.9999L20.5834 10.8333M22.75 12.9999L20.5834 15.1666" stroke="#E94033" stroke-width="2" stroke-linecap="round" stroke-linejoin="round"/>
</svg>
