<svg width="24" height="25" viewBox="0 0 24 25" fill="none" xmlns="http://www.w3.org/2000/svg">
<path fill-rule="evenodd" clip-rule="evenodd" d="M22 12.158C22 17.6808 17.5228 22.158 12 22.158C6.47715 22.158 2 17.6808 2 12.158C2 6.63511 6.47715 2.15796 12 2.15796C17.5228 2.15796 22 6.63511 22 12.158ZM12 11.158C12.5523 11.158 13 11.6057 13 12.158V17.1588C13 17.7111 12.5523 18.1588 12 18.1588C11.4477 18.1588 11 17.7111 11 17.1588V12.158C11 11.6057 11.4477 11.158 12 11.158ZM12 9.15796C12.5523 9.15796 13 8.71024 13 8.15796C13 7.60567 12.5523 7.15796 12 7.15796C11.4477 7.15796 11 7.60567 11 8.15796C11 8.71024 11.4477 9.15796 12 9.15796Z" fill="#B95000"/>
</svg>
