<svg width="26" height="26" viewBox="0 0 26 26" fill="none" xmlns="http://www.w3.org/2000/svg">
<path d="M21.8725 15.2318L20.6483 13.1951C20.3775 12.7509 20.1392 11.8951 20.1392 11.3751V9.34928C20.1392 5.41678 16.9434 2.22095 13.0217 2.22095C9.08918 2.23178 5.89335 5.41678 5.89335 9.34928V11.3643C5.89335 11.8843 5.65502 12.7401 5.39502 13.1843L4.17085 15.2209C3.70502 16.0118 3.59668 16.9109 3.88918 17.6909C4.18168 18.4818 4.84252 19.1101 5.70918 19.3918C6.87918 19.7818 8.06002 20.0634 9.26252 20.2693C9.38168 20.2909 9.50085 20.3018 9.62002 20.3234C9.77168 20.3451 9.93418 20.3668 10.0967 20.3884C10.3783 20.4318 10.66 20.4643 10.9525 20.4859C11.635 20.5509 12.3284 20.5834 13.0217 20.5834C13.7042 20.5834 14.3867 20.5509 15.0583 20.4859C15.3075 20.4643 15.5567 20.4426 15.795 20.4101C15.99 20.3884 16.185 20.3668 16.38 20.3343C16.4992 20.3235 16.6184 20.3018 16.7375 20.2801C17.9509 20.0851 19.1534 19.7818 20.3234 19.3918C21.1575 19.1101 21.7967 18.4818 22.1 17.6801C22.4033 16.8676 22.3167 15.9793 21.8725 15.2318ZM13.8125 10.8334C13.8125 11.2884 13.4442 11.6568 12.9892 11.6568C12.5342 11.6568 12.1658 11.2884 12.1658 10.8334V7.47511C12.1658 7.02011 12.5342 6.65178 12.9892 6.65178C13.4442 6.65178 13.8125 7.02011 13.8125 7.47511V10.8334Z" fill="#5686E1"/>
<path d="M16.0658 21.6776C15.6108 22.9342 14.4083 23.8334 13 23.8334C12.1442 23.8334 11.2992 23.4867 10.7033 22.8692C10.3567 22.5442 10.0967 22.1109 9.94501 21.6667C10.0858 21.6884 10.2267 21.6992 10.3783 21.7209C10.6275 21.7534 10.8875 21.7859 11.1475 21.8076C11.765 21.8617 12.3933 21.8942 13.0217 21.8942C13.6392 21.8942 14.2567 21.8617 14.8633 21.8076C15.0908 21.7859 15.3183 21.7751 15.535 21.7426C15.7083 21.7209 15.8817 21.6992 16.0658 21.6776Z" fill="#E94033"/>
</svg>
