<svg width="38" height="39" viewBox="0 0 38 39" fill="none" xmlns="http://www.w3.org/2000/svg">
<circle cx="19" cy="19.158" r="19" fill="#44A4F2" fill-opacity="0.12"/>
<g clip-path="url(#clip0_402_2883)">
<mask id="path-2-inside-1_402_2883" fill="white">
<path d="M19.3958 9.78166C19.7752 9.90535 20.1215 10.1033 20.4102 10.3837L23.6263 13.6328C23.8984 13.9049 24.0881 14.2348 24.2036 14.5976H20.2205C19.7669 14.5976 19.3958 14.2265 19.3958 13.773V9.78166ZM26.059 20.1063C26.8012 19.3641 27.997 19.3641 28.7391 20.1063C29.4813 20.8485 29.4813 22.0442 28.7391 22.7864L23.1233 28.4023C22.4553 29.0703 21.5399 29.4496 20.5998 29.4496H19.4041V28.2539C19.4041 27.3055 19.7834 26.3984 20.4514 25.7304L26.0673 20.1146L26.059 20.1063ZM14.4479 17.9045C13.9944 17.9045 13.6233 18.2756 13.6233 18.7291C13.6233 19.2899 13.9944 20.0568 14.5551 20.7083C14.9757 20.0733 15.2726 19.3229 15.2726 18.7291C15.2726 18.2756 14.9015 17.9045 14.4479 17.9045ZM24.3438 16.2552V19.4878L19.2804 24.5512C18.398 25.4336 17.8785 26.5716 17.7713 27.7921H13.6233C11.3472 27.7921 9.5 25.9449 9.5 23.6688V13.7812C9.5 11.5052 11.3472 9.65796 13.6233 9.65796H17.7465V13.7812C17.7465 15.1419 18.8598 16.2552 20.2205 16.2552H24.3438ZM20.2205 20.7908C20.2205 20.1063 19.668 19.5538 18.9835 19.5538C18.299 19.5538 17.7465 20.1063 17.7465 20.7908C17.7465 21.0547 17.829 21.3433 17.9857 21.6072C17.7218 21.8381 17.3754 22.0278 16.9219 22.0278C16.559 22.0278 16.1962 21.9205 15.8498 21.7474C16.5178 20.7908 16.9219 19.6445 16.9219 18.7291C16.9219 17.3685 15.8086 16.2552 14.4479 16.2552C13.0872 16.2552 11.974 17.3685 11.974 18.7291C11.974 19.7352 12.5347 20.9145 13.3841 21.8628C13.1862 21.97 12.9883 22.0278 12.7986 22.0278C12.3451 22.0278 11.974 22.3988 11.974 22.8524C11.974 23.306 12.3451 23.6771 12.7986 23.6771C13.4831 23.6771 14.1263 23.4049 14.6953 22.9761C15.388 23.4132 16.1467 23.6771 16.9219 23.6771C19.066 23.6771 20.2205 21.6319 20.2205 20.7908Z"/>
</mask>
<path d="M19.3958 9.78166C19.7752 9.90535 20.1215 10.1033 20.4102 10.3837L23.6263 13.6328C23.8984 13.9049 24.0881 14.2348 24.2036 14.5976H20.2205C19.7669 14.5976 19.3958 14.2265 19.3958 13.773V9.78166ZM26.059 20.1063C26.8012 19.3641 27.997 19.3641 28.7391 20.1063C29.4813 20.8485 29.4813 22.0442 28.7391 22.7864L23.1233 28.4023C22.4553 29.0703 21.5399 29.4496 20.5998 29.4496H19.4041V28.2539C19.4041 27.3055 19.7834 26.3984 20.4514 25.7304L26.0673 20.1146L26.059 20.1063ZM14.4479 17.9045C13.9944 17.9045 13.6233 18.2756 13.6233 18.7291C13.6233 19.2899 13.9944 20.0568 14.5551 20.7083C14.9757 20.0733 15.2726 19.3229 15.2726 18.7291C15.2726 18.2756 14.9015 17.9045 14.4479 17.9045ZM24.3438 16.2552V19.4878L19.2804 24.5512C18.398 25.4336 17.8785 26.5716 17.7713 27.7921H13.6233C11.3472 27.7921 9.5 25.9449 9.5 23.6688V13.7812C9.5 11.5052 11.3472 9.65796 13.6233 9.65796H17.7465V13.7812C17.7465 15.1419 18.8598 16.2552 20.2205 16.2552H24.3438ZM20.2205 20.7908C20.2205 20.1063 19.668 19.5538 18.9835 19.5538C18.299 19.5538 17.7465 20.1063 17.7465 20.7908C17.7465 21.0547 17.829 21.3433 17.9857 21.6072C17.7218 21.8381 17.3754 22.0278 16.9219 22.0278C16.559 22.0278 16.1962 21.9205 15.8498 21.7474C16.5178 20.7908 16.9219 19.6445 16.9219 18.7291C16.9219 17.3685 15.8086 16.2552 14.4479 16.2552C13.0872 16.2552 11.974 17.3685 11.974 18.7291C11.974 19.7352 12.5347 20.9145 13.3841 21.8628C13.1862 21.97 12.9883 22.0278 12.7986 22.0278C12.3451 22.0278 11.974 22.3988 11.974 22.8524C11.974 23.306 12.3451 23.6771 12.7986 23.6771C13.4831 23.6771 14.1263 23.4049 14.6953 22.9761C15.388 23.4132 16.1467 23.6771 16.9219 23.6771C19.066 23.6771 20.2205 21.6319 20.2205 20.7908Z" fill="#44A4F2"/>
<path d="M19.3958 9.78166L26.0096 -10.5006L-1.9375 -19.6138L-1.9375 9.78166H19.3958ZM20.4102 10.3837L35.5719 -4.62413L35.4248 -4.77267L35.2749 -4.91831L20.4102 10.3837ZM23.6263 13.6328L8.46459 28.6406L8.50287 28.6792L8.54136 28.7177L23.6263 13.6328ZM24.2036 14.5976V35.931H53.3786L44.5326 8.12928L24.2036 14.5976ZM26.059 20.1063L10.9741 5.02136L-4.11086 20.1063L10.9741 35.1913L26.059 20.1063ZM28.7391 22.7864L43.8241 37.8714L28.7391 22.7864ZM23.1233 28.4023L38.2082 43.4873L23.1233 28.4023ZM19.4041 29.4496H-1.92925V50.783H19.4041V29.4496ZM20.4514 25.7304L5.36645 10.6455L5.36644 10.6455L20.4514 25.7304ZM26.0673 20.1146L41.1522 35.1995L56.2372 20.1146L41.1522 5.02961L26.0673 20.1146ZM14.5551 20.7083L-1.61342 34.6255L16.7756 55.9892L32.341 32.4886L14.5551 20.7083ZM24.3438 16.2552H45.6771V-5.07815H24.3438V16.2552ZM24.3438 19.4878L39.4287 34.5728L45.6771 28.3244V19.4878H24.3438ZM19.2804 24.5512L4.19544 9.46624L4.19544 9.46624L19.2804 24.5512ZM17.7713 27.7921V49.1254H37.3129L39.0228 29.6588L17.7713 27.7921ZM17.7465 9.65796H39.0799V-11.6754H17.7465V9.65796ZM17.9857 21.6072L32.0338 37.6621L45.3898 25.9756L36.3292 10.7157L17.9857 21.6072ZM15.8498 21.7474L-1.64128 9.53375L-15.7811 29.7833L6.30927 40.8285L15.8498 21.7474ZM13.3841 21.8628L23.5448 40.621L47.2996 27.7539L29.2754 7.62979L13.3841 21.8628ZM14.6953 22.9761L26.0791 4.9339L13.6204 -2.92693L1.85584 5.93911L14.6953 22.9761ZM12.7821 30.0639C10.3973 29.2863 7.82809 27.9031 5.54539 25.6856L35.2749 -4.91831C32.415 -7.69655 29.1531 -9.47554 26.0096 -10.5006L12.7821 30.0639ZM5.24844 25.3914L8.46459 28.6406L38.788 -1.375L35.5719 -4.62413L5.24844 25.3914ZM8.54136 28.7177C6.16062 26.337 4.68453 23.6119 3.87448 21.066L44.5326 8.12928C43.4917 4.85769 41.6363 1.47285 38.7112 -1.45216L8.54136 28.7177ZM24.2036 -6.7357H20.2205V35.931H24.2036V-6.7357ZM20.2205 -6.7357C31.549 -6.7357 40.7292 2.44446 40.7292 13.773H-1.9375C-1.9375 26.0086 7.98485 35.931 20.2205 35.931V-6.7357ZM40.7292 13.773V9.78166H-1.9375V13.773H40.7292ZM41.144 35.1913C33.555 42.7803 21.2432 42.7803 13.6542 35.1913L43.8241 5.02136C34.7507 -4.05201 20.0475 -4.05201 10.9741 5.02136L41.144 35.1913ZM13.6542 35.1913C6.06521 27.6023 6.06521 15.2905 13.6542 7.70148L43.8241 37.8714C52.8975 28.798 52.8975 14.0947 43.8241 5.02136L13.6542 35.1913ZM13.6542 7.70148L8.03832 13.3174L38.2082 43.4873L43.8241 37.8714L13.6542 7.70148ZM8.03832 13.3174C11.359 9.99673 15.8648 8.11629 20.5998 8.11629V50.783C27.2151 50.783 33.5516 48.1438 38.2082 43.4873L8.03832 13.3174ZM20.5998 8.11629H19.4041V50.783H20.5998V8.11629ZM40.7374 29.4496V28.2539H-1.92925V29.4496H40.7374ZM40.7374 28.2539C40.7374 33.0068 38.8384 37.5133 35.5363 40.8154L5.36644 10.6455C0.728425 15.2835 -1.92925 21.6043 -1.92925 28.2539H40.7374ZM35.5363 40.8154L41.1522 35.1995L10.9823 5.02961L5.36645 10.6455L35.5363 40.8154ZM41.1522 5.02961L41.144 5.02136L10.9741 35.1913L10.9823 35.1995L41.1522 5.02961ZM14.4479 -3.42885C2.21228 -3.42885 -7.71007 6.4935 -7.71007 18.7291H34.9566C34.9566 30.0577 25.7764 39.2378 14.4479 39.2378V-3.42885ZM-7.71007 18.7291C-7.71007 26.7401 -3.5686 32.3541 -1.61342 34.6255L30.7237 6.79108C31.5664 7.77017 32.4228 9.00134 33.1528 10.5398C33.7606 11.8209 34.9566 14.7178 34.9566 18.7291H-7.71007ZM32.341 32.4886C33.9287 30.0914 36.6059 25.1941 36.6059 18.7291H-6.06076C-6.06076 15.7148 -5.36516 13.4548 -4.92572 12.2722C-4.43456 10.9505 -3.83937 9.84697 -3.23074 8.92806L32.341 32.4886ZM36.6059 18.7291C36.6059 6.4935 26.6835 -3.42885 14.4479 -3.42885V39.2378C3.1194 39.2378 -6.06076 30.0577 -6.06076 18.7291H36.6059ZM3.01042 16.2552V19.4878H45.6771V16.2552H3.01042ZM9.25881 4.40287L4.19544 9.46624L34.3653 39.6361L39.4287 34.5728L9.25881 4.40287ZM4.19544 9.46624C-0.2885 13.9502 -2.94148 19.7918 -3.48024 25.9254L39.0228 29.6588C38.6984 33.3514 37.0845 36.917 34.3653 39.6361L4.19544 9.46624ZM17.7713 6.45874H13.6233V49.1254H17.7713V6.45874ZM13.6233 6.45874C23.1293 6.45874 30.8333 14.1628 30.8333 23.6688H-11.8333C-11.8333 37.7269 -0.434852 49.1254 13.6233 49.1254V6.45874ZM30.8333 23.6688V13.7812H-11.8333V23.6688H30.8333ZM30.8333 13.7812C30.8333 23.2873 23.1293 30.9913 13.6233 30.9913V-11.6754C-0.434852 -11.6754 -11.8333 -0.276896 -11.8333 13.7812H30.8333ZM13.6233 30.9913H17.7465V-11.6754H13.6233V30.9913ZM-3.58681 9.65796V13.7812H39.0799V9.65796H-3.58681ZM-3.58681 13.7812C-3.58681 26.924 7.07774 37.5885 20.2205 37.5885V-5.07815C30.6419 -5.07815 39.0799 3.35982 39.0799 13.7812H-3.58681ZM20.2205 37.5885H24.3438V-5.07815H20.2205V37.5885ZM41.5538 20.7908C41.5538 8.32423 31.45 -1.77954 18.9835 -1.77954V40.8871C7.8859 40.8871 -1.11285 31.8884 -1.11285 20.7908H41.5538ZM18.9835 -1.77954C6.51697 -1.77954 -3.58681 8.32423 -3.58681 20.7908H39.0799C39.0799 31.8884 30.0811 40.8871 18.9835 40.8871V-1.77954ZM-3.58681 20.7908C-3.58681 25.327 -2.2345 29.3381 -0.357891 32.4987L36.3292 10.7157C37.8925 13.3485 39.0799 16.7824 39.0799 20.7908H-3.58681ZM3.93758 5.55221C6.36944 3.42433 10.8167 0.694416 16.9219 0.694416V43.3611C23.9341 43.3611 29.0741 40.2518 32.0338 37.6621L3.93758 5.55221ZM16.9219 0.694416C20.7425 0.694416 23.6674 1.80476 25.3904 2.66625L6.30927 40.8285C8.72496 42.0363 12.3756 43.3611 16.9219 43.3611V0.694416ZM33.3409 33.961C35.8631 30.349 38.2552 25.0211 38.2552 18.7291H-4.41146C-4.41146 16.221 -3.89642 14.2952 -3.47121 13.0956C-3.01642 11.8125 -2.40477 10.6271 -1.64128 9.53375L33.3409 33.961ZM38.2552 18.7291C38.2552 5.58639 27.5907 -5.07815 14.4479 -5.07815V37.5885C4.02652 37.5885 -4.41146 29.1505 -4.41146 18.7291H38.2552ZM14.4479 -5.07815C1.30517 -5.07815 -9.35938 5.58639 -9.35938 18.7291H33.3073C33.3073 29.1505 24.8693 37.5885 14.4479 37.5885V-5.07815ZM-9.35938 18.7291C-9.35938 26.7581 -5.46595 32.7923 -2.50714 36.0959L29.2754 7.62979C30.1754 8.6347 31.0508 9.8903 31.7638 11.4507C32.4344 12.918 33.3073 15.4202 33.3073 18.7291H-9.35938ZM3.22341 3.10459C5.36328 1.94549 8.64564 0.694416 12.7986 0.694416V43.3611C17.3309 43.3611 21.0091 41.9946 23.5448 40.621L3.22341 3.10459ZM12.7986 0.694416C0.562979 0.694416 -9.35938 10.6168 -9.35938 22.8524H33.3073C33.3073 34.1809 24.1271 43.3611 12.7986 43.3611V0.694416ZM-9.35938 22.8524C-9.35938 35.088 0.562979 45.0104 12.7986 45.0104V2.34372C24.1271 2.34372 33.3073 11.5239 33.3073 22.8524H-9.35938ZM12.7986 45.0104C19.3213 45.0104 24.3608 42.4051 27.5348 40.0131L1.85584 5.93911C3.89183 4.40474 7.64481 2.34372 12.7986 2.34372V45.0104ZM3.31154 41.0183C6.58933 43.0864 11.2443 45.0104 16.9219 45.0104V2.34372C21.0491 2.34372 24.1867 3.73991 26.0791 4.9339L3.31154 41.0183ZM16.9219 45.0104C25.3722 45.0104 31.604 40.8384 35.2084 36.8469C36.9848 34.8798 38.3853 32.7047 39.4084 30.4669C40.2667 28.5895 41.5538 25.1649 41.5538 20.7908H-1.11285C-1.11285 16.8373 0.0299549 13.9837 0.604818 12.7263C1.34444 11.1085 2.32231 9.60247 3.542 8.25178C6.03312 5.4931 10.6156 2.34372 16.9219 2.34372V45.0104Z" fill="#44A4F2" mask="url(#path-2-inside-1_402_2883)"/>
</g>
<defs>
<clipPath id="clip0_402_2883">
<rect width="19.7917" height="19.7917" fill="white" transform="translate(9.5 9.65796)"/>
</clipPath>
</defs>
</svg>
