<svg width="30" height="31" viewBox="0 0 30 31" fill="none" xmlns="http://www.w3.org/2000/svg">
<g clip-path="url(#clip0_100_2684)">
<path fill-rule="evenodd" clip-rule="evenodd" d="M30 15.5C30 19.4782 28.4196 23.2936 25.6066 26.1066C22.7936 28.9196 18.9782 30.5 15 30.5C11.0218 30.5 7.20644 28.9196 4.3934 26.1066C1.58035 23.2936 0 19.4782 0 15.5C0 11.5218 1.58035 7.70644 4.3934 4.8934C7.20644 2.08035 11.0218 0.5 15 0.5C18.9782 0.5 22.7936 2.08035 25.6066 4.8934C28.4196 7.70644 30 11.5218 30 15.5ZM12.5 8C12.5 7.33696 12.7634 6.70107 13.2322 6.23223C13.7011 5.76339 14.337 5.5 15 5.5C15.663 5.5 16.2989 5.76339 16.7678 6.23223C17.2366 6.70107 17.5 7.33696 17.5 8V15.5C17.5 16.163 17.2366 16.7989 16.7678 17.2678C16.2989 17.7366 15.663 18 15 18C14.337 18 13.7011 17.7366 13.2322 17.2678C12.7634 16.7989 12.5 16.163 12.5 15.5V8ZM15 20.5C14.337 20.5 13.7011 20.7634 13.2322 21.2322C12.7634 21.7011 12.5 22.337 12.5 23C12.5 23.663 12.7634 24.2989 13.2322 24.7678C13.7011 25.2366 14.337 25.5 15 25.5C15.663 25.5 16.2989 25.2366 16.7678 24.7678C17.2366 24.2989 17.5 23.663 17.5 23C17.5 22.337 17.2366 21.7011 16.7678 21.2322C16.2989 20.7634 15.663 20.5 15 20.5Z" fill="#5686E1"/>
<g clip-path="url(#clip1_100_2684)">
<path fill-rule="evenodd" clip-rule="evenodd" d="M30 15.5C30 19.4782 28.4196 23.2936 25.6066 26.1066C22.7936 28.9196 18.9782 30.5 15 30.5C11.0218 30.5 7.20644 28.9196 4.3934 26.1066C1.58035 23.2936 0 19.4782 0 15.5C0 11.5218 1.58035 7.70644 4.3934 4.8934C7.20644 2.08035 11.0218 0.5 15 0.5C18.9782 0.5 22.7936 2.08035 25.6066 4.8934C28.4196 7.70644 30 11.5218 30 15.5ZM12.5 8C12.5 7.33696 12.7634 6.70107 13.2322 6.23223C13.7011 5.76339 14.337 5.5 15 5.5C15.663 5.5 16.2989 5.76339 16.7678 6.23223C17.2366 6.70107 17.5 7.33696 17.5 8V15.5C17.5 16.163 17.2366 16.7989 16.7678 17.2678C16.2989 17.7366 15.663 18 15 18C14.337 18 13.7011 17.7366 13.2322 17.2678C12.7634 16.7989 12.5 16.163 12.5 15.5V8ZM15 20.5C14.337 20.5 13.7011 20.7634 13.2322 21.2322C12.7634 21.7011 12.5 22.337 12.5 23C12.5 23.663 12.7634 24.2989 13.2322 24.7678C13.7011 25.2366 14.337 25.5 15 25.5C15.663 25.5 16.2989 25.2366 16.7678 24.7678C17.2366 24.2989 17.5 23.663 17.5 23C17.5 22.337 17.2366 21.7011 16.7678 21.2322C16.2989 20.7634 15.663 20.5 15 20.5Z" fill="#5686E1"/>
</g>
</g>
<defs>
<clipPath id="clip0_100_2684">
<rect width="30" height="30" fill="white" transform="translate(0 0.5)"/>
</clipPath>
<clipPath id="clip1_100_2684">
<rect width="30" height="30" fill="white" transform="translate(0 0.5)"/>
</clipPath>
</defs>
</svg>
