<svg width="26" height="26" viewBox="0 0 26 26" fill="none" xmlns="http://www.w3.org/2000/svg">
<path d="M11.9166 18.4167H14.0833V11.9167H11.9166V18.4167ZM13 9.75008C13.3069 9.75008 13.5644 9.64608 13.7724 9.43808C13.9804 9.23008 14.084 8.97297 14.0833 8.66675C14.0826 8.36053 13.9786 8.10341 13.7713 7.89541C13.564 7.68741 13.3069 7.58341 13 7.58341C12.693 7.58341 12.4359 7.68741 12.2286 7.89541C12.0214 8.10341 11.9174 8.36053 11.9166 8.66675C11.9159 8.97297 12.0199 9.23044 12.2286 9.43916C12.4374 9.64789 12.6945 9.75153 13 9.75008ZM13 23.8334C10.4903 23.2015 8.4182 21.7614 6.78381 19.5131C5.14942 17.2648 4.33259 14.7688 4.33331 12.0251V5.41675L13 2.16675L21.6666 5.41675V12.0251C21.6666 14.7695 20.8498 17.2659 19.2161 19.5142C17.5825 21.7624 15.5104 23.2022 13 23.8334Z" fill="#5686E1"/>
</svg>
