<svg width="22" height="20" viewBox="0 0 22 20" fill="none" xmlns="http://www.w3.org/2000/svg">
<path d="M9.99543 19.2162C10.6683 19.2162 11.1706 18.7139 11.1706 18.041V14.204H11.462C15.3491 14.204 17.8104 15.1885 19.5577 18.4726C19.9096 19.1155 20.372 19.2162 20.7937 19.2162C21.3359 19.2162 21.8283 18.734 21.8283 17.8705C21.8283 10.4472 18.6843 5.81647 11.462 5.81647H11.1706V2.01932C11.1706 1.34647 10.6687 0.78418 9.97572 0.78418C9.47343 0.78418 9.17172 1.03532 8.60944 1.50761L0.684293 8.92018C0.312721 9.29175 0.17215 9.66332 0.17215 10.0045C0.17215 10.3362 0.312721 10.7078 0.684293 11.0798L8.60944 18.5626C9.11172 18.9946 9.49315 19.2158 9.99543 19.2158" fill="white"/>
</svg>
