<svg width="20" height="22" viewBox="0 0 20 22" fill="none" xmlns="http://www.w3.org/2000/svg">
<path d="M8 5.75V0.5H2.75C2.15326 0.5 1.58097 0.737053 1.15901 1.15901C0.737053 1.58097 0.5 2.15326 0.5 2.75V19.25C0.5 19.8467 0.737053 20.419 1.15901 20.841C1.58097 21.2629 2.15326 21.5 2.75 21.5H13.25C13.8467 21.5 14.419 21.2629 14.841 20.841C15.2629 20.419 15.5 19.8467 15.5 19.25V15.593L12.9995 18.0935C12.3845 18.7085 11.6135 19.1435 10.7705 19.355L8.5235 19.916C7.90995 20.0708 7.26221 20.0154 6.68383 19.7587C6.10545 19.502 5.62983 19.0588 5.333 18.5H2.75C2.55109 18.5 2.36032 18.421 2.21967 18.2803C2.07902 18.1397 2 17.9489 2 17.75C2 17.5511 2.07902 17.3603 2.21967 17.2197C2.36032 17.079 2.55109 17 2.75 17H5.006C5.01769 16.8245 5.04479 16.6503 5.087 16.4795L5.6495 14.2325C5.86018 13.3897 6.29566 12.6198 6.9095 12.005L10.916 8H10.25C9.65326 8 9.08097 7.76295 8.65901 7.34099C8.23705 6.91903 8 6.34674 8 5.75ZM9.5 0.875L13.7705 5.1455L12.416 6.5H10.25C10.0511 6.5 9.86032 6.42098 9.71967 6.28033C9.57902 6.13968 9.5 5.94891 9.5 5.75V0.875ZM7.97 13.0655L15.215 5.8205C15.4756 5.56009 15.785 5.35356 16.1254 5.2127C16.4658 5.07184 16.8306 4.99941 17.1991 4.99955C17.5675 4.99969 17.9323 5.0724 18.2726 5.21351C18.6129 5.35463 18.9221 5.56139 19.1825 5.822C19.4429 6.08261 19.6494 6.39196 19.7903 6.73238C19.9312 7.07281 20.0036 7.43764 20.0034 7.80606C20.0033 8.17448 19.9306 8.53926 19.7895 8.87958C19.6484 9.2199 19.4416 9.52909 19.181 9.7895L11.936 17.033C11.5138 17.4551 10.985 17.7547 10.406 17.9L8.159 18.461C7.93557 18.5167 7.70154 18.5136 7.47964 18.4521C7.25775 18.3906 7.05553 18.2728 6.89263 18.11C6.72974 17.9473 6.6117 17.7452 6.55 17.5233C6.4883 17.3015 6.48503 17.0675 6.5405 16.844L7.103 14.597C7.24829 14.018 7.54793 13.4892 7.97 13.067" fill="white"/>
</svg>
