<svg width="30" height="25" viewBox="0 0 30 25" fill="none" xmlns="http://www.w3.org/2000/svg">
<path d="M0 0.625V16.4746C0.283203 16.25 0.581055 16.0596 0.893555 15.9033C1.20605 15.7471 1.5332 15.6055 1.875 15.4785V3.54004L15 10.1172L28.125 3.54004V17.5H13.125V19.375H30V0.625H0ZM15 8.00781L3.96973 2.5H26.0303L15 8.00781ZM8.04199 17.5C7.55371 17.5 7.0166 17.4902 6.43066 17.4707C5.84473 17.4512 5.24902 17.4512 4.64355 17.4707C4.03809 17.4902 3.46191 17.5586 2.91504 17.6758C2.36816 17.793 1.875 17.9883 1.43555 18.2617C0.996094 18.5352 0.649414 18.916 0.395508 19.4043C0.141602 19.8926 0.00976562 20.5078 0 21.25C0 21.7676 0.0976563 22.251 0.292969 22.7002C0.488281 23.1494 0.756836 23.5449 1.09863 23.8867C1.44043 24.2285 1.84082 24.4971 2.2998 24.6924C2.75879 24.8877 3.24219 24.9902 3.75 25V23.125C3.48633 23.125 3.24219 23.0762 3.01758 22.9785C2.79297 22.8809 2.59766 22.749 2.43164 22.583C2.26562 22.417 2.12891 22.2168 2.02148 21.9824C1.91406 21.748 1.86523 21.5039 1.875 21.25C1.875 20.9863 1.92383 20.7422 2.02148 20.5176C2.11914 20.293 2.25098 20.0977 2.41699 19.9316C2.58301 19.7656 2.7832 19.6289 3.01758 19.5215C3.25195 19.4141 3.49609 19.3652 3.75 19.375H8.04199L5.66895 21.7627L6.9873 23.0811L11.6309 18.4375L6.9873 13.7939L5.66895 15.1123L8.04199 17.5Z" fill="#5686E1"/>
</svg>
