<svg width="135" height="129" viewBox="0 0 135 129" fill="none" xmlns="http://www.w3.org/2000/svg">
<circle cx="63.1846" cy="56.7542" r="42.9265" fill="#5686E1" stroke="#5686E1"/>
<rect x="48.5513" y="42.1206" width="28.609" height="28.609" rx="11.5" fill="white" stroke="#5686E1"/>
<path d="M61.0686 61.5467L60.6462 61.1286L56.2839 56.8104L56.2673 56.7939L56.2521 56.7763C56.0845 56.5824 55.9962 56.332 56.0062 56.075C56.0163 55.8181 56.1238 55.5754 56.3057 55.3951C56.4874 55.2151 56.73 55.1105 56.9846 55.1007C57.2392 55.091 57.489 55.1767 57.684 55.3421L57.7016 55.3571L57.7181 55.3734L61.0602 58.6849L67.9947 51.8216L68.011 51.8055L68.0286 51.7906C68.2235 51.6252 68.4733 51.5394 68.7279 51.5492C68.9825 51.5589 69.2251 51.6635 69.4069 51.8436M61.0686 61.5467L69.4069 51.8436M61.0686 61.5467L61.4907 61.1282L69.4289 53.2585L69.4453 53.2422L69.4604 53.2248C69.628 53.0309 69.7163 52.7805 69.7063 52.5235C69.6963 52.2665 69.5888 52.0238 69.4069 51.8436M61.0686 61.5467L69.4069 51.8436" fill="#5686E1" stroke="#5686E1" stroke-width="1.2"/>
<path d="M10.8537 85.6766C10.8537 88.2443 8.68303 90.3884 5.92685 90.3884C3.17066 90.3884 1 88.2443 1 85.6766C1 83.1089 3.17066 80.9648 5.92685 80.9648C8.68303 80.9648 10.8537 83.1089 10.8537 85.6766Z" fill="#5686E1" stroke="#5686E1" stroke-width="2"/>
<path d="M50.3671 115.505C50.3671 116.67 49.3758 117.678 48.0744 117.678C46.773 117.678 45.7817 116.67 45.7817 115.505C45.7817 114.339 46.773 113.332 48.0744 113.332C49.3758 113.332 50.3671 114.339 50.3671 115.505Z" fill="#5686E1" stroke="#5686E1" stroke-width="2"/>
<mask id="path-6-inside-1_34_1827" fill="white">
<ellipse cx="28.6478" cy="99.9557" rx="1.64635" ry="1.5866"/>
</mask>
<ellipse cx="28.6478" cy="99.9557" rx="1.64635" ry="1.5866" fill="#5686E1"/>
<path d="M28.2942 99.9557C28.2942 99.6584 28.5228 99.5423 28.6478 99.5423V103.542C30.5913 103.542 32.2942 102.006 32.2942 99.9557H28.2942ZM28.6478 99.5423C28.7728 99.5423 29.0015 99.6584 29.0015 99.9557H25.0015C25.0015 102.006 26.7043 103.542 28.6478 103.542V99.5423ZM29.0015 99.9557C29.0015 100.253 28.7728 100.369 28.6478 100.369V96.3691C26.7043 96.3691 25.0015 97.9059 25.0015 99.9557H29.0015ZM28.6478 100.369C28.5228 100.369 28.2942 100.253 28.2942 99.9557H32.2942C32.2942 97.9059 30.5913 96.3691 28.6478 96.3691V100.369Z" fill="#5686E1" mask="url(#path-6-inside-1_34_1827)"/>
<mask id="path-8-inside-2_34_1827" fill="white">
<ellipse cx="1.64635" cy="41.569" rx="1.64635" ry="1.5866"/>
</mask>
<ellipse cx="1.64635" cy="41.569" rx="1.64635" ry="1.5866" fill="#5686E1"/>
<path d="M1.29269 41.569C1.29269 41.2717 1.52136 41.1556 1.64635 41.1556V45.1556C3.58984 45.1556 5.29269 43.6189 5.29269 41.569H1.29269ZM1.64635 41.1556C1.77134 41.1556 2 41.2717 2 41.569H-2C-2 43.6189 -0.297149 45.1556 1.64635 45.1556V41.1556ZM2 41.569C2 41.8664 1.77134 41.9824 1.64635 41.9824V37.9824C-0.297149 37.9824 -2 39.5192 -2 41.569H2ZM1.64635 41.9824C1.52136 41.9824 1.29269 41.8664 1.29269 41.569H5.29269C5.29269 39.5192 3.58984 37.9824 1.64635 37.9824V41.9824Z" fill="#5686E1" mask="url(#path-8-inside-2_34_1827)"/>
<mask id="path-10-inside-3_34_1827" fill="white">
<ellipse cx="118.209" cy="84.09" rx="1.64635" ry="1.5866"/>
</mask>
<ellipse cx="118.209" cy="84.09" rx="1.64635" ry="1.5866" fill="#5686E1"/>
<path d="M117.856 84.09C117.856 83.7927 118.084 83.6766 118.209 83.6766V87.6766C120.153 87.6766 121.856 86.1399 121.856 84.09H117.856ZM118.209 83.6766C118.334 83.6766 118.563 83.7927 118.563 84.09H114.563C114.563 86.1399 116.266 87.6766 118.209 87.6766V83.6766ZM118.563 84.09C118.563 84.3874 118.334 84.5034 118.209 84.5034V80.5034C116.266 80.5034 114.563 82.0402 114.563 84.09H118.563ZM118.209 84.5034C118.084 84.5034 117.856 84.3874 117.856 84.09H121.856C121.856 82.0402 120.153 80.5034 118.209 80.5034V84.5034Z" fill="#5686E1" mask="url(#path-10-inside-3_34_1827)"/>
<ellipse cx="91.8665" cy="105.667" rx="0.987808" ry="0.95196" fill="#5686E1"/>
<ellipse cx="66.1829" cy="127.88" rx="0.987808" ry="0.95196" fill="#5686E1"/>
<ellipse cx="64.8672" cy="0.95196" rx="0.987808" ry="0.95196" fill="#5686E1"/>
<ellipse cx="110.965" cy="28.8763" rx="0.987808" ry="0.95196" fill="#5686E1"/>
<path d="M105.684 10.7889C105.684 11.9546 104.693 12.9621 103.392 12.9621C102.09 12.9621 101.099 11.9546 101.099 10.7889C101.099 9.62322 102.09 8.61572 103.392 8.61572C104.693 8.61572 105.684 9.62322 105.684 10.7889Z" fill="#5686E1" stroke="#5686E1" stroke-width="2"/>
<path d="M112.269 103.446C112.269 104.612 111.277 105.619 109.976 105.619C108.675 105.619 107.683 104.612 107.683 103.446C107.683 102.28 108.675 101.273 109.976 101.273C111.277 101.273 112.269 102.28 112.269 103.446Z" fill="#5686E1" stroke="#5686E1" stroke-width="2"/>
<path d="M134 41.8863C134 45.155 131.24 47.8674 127.756 47.8674C124.273 47.8674 121.512 45.155 121.512 41.8863C121.512 38.6176 124.273 35.9053 127.756 35.9053C131.24 35.9053 134 38.6176 134 41.8863Z" fill="#5686E1" stroke="#5686E1" stroke-width="2"/>
<path d="M22.7068 7.61581C22.7068 10.8845 19.9465 13.5968 16.4629 13.5968C12.9793 13.5968 10.219 10.8845 10.219 7.61581C10.219 4.34709 12.9793 1.63477 16.4629 1.63477C19.9465 1.63477 22.7068 4.34709 22.7068 7.61581Z" fill="#5686E1" stroke="#5686E1" stroke-width="2"/>
</svg>
