<svg width="35" height="35" viewBox="0 0 35 35" fill="none" xmlns="http://www.w3.org/2000/svg">
<path d="M11.3514 19.4068C11.6419 19.9139 12.2916 20.0872 12.7933 19.7945L16.2857 18.0219C16.3428 18.0304 16.3998 18.0409 16.46 18.0409C17.3368 18.0409 18.0446 17.3332 18.0446 16.4564L17.5164 8.13634C17.5164 7.85617 17.4051 7.58748 17.207 7.38937C17.0089 7.19126 16.7402 7.07996 16.46 7.07996C16.1799 7.07996 15.9112 7.19126 15.7131 7.38937C15.5149 7.58748 15.4036 7.85617 15.4036 8.13634L14.9124 15.8933L11.7391 17.9638C11.4971 18.1043 11.3207 18.335 11.2486 18.6053C11.1765 18.8756 11.2146 19.1635 11.3545 19.4058L11.3514 19.4068ZM12.8261 10.1667C13.0687 10.0266 13.2457 9.79588 13.3182 9.52527C13.3908 9.25465 13.3528 8.96631 13.2127 8.72369C13.1085 8.54282 12.9529 8.39693 12.7658 8.30448C12.5786 8.21203 12.3682 8.17717 12.1612 8.2043C11.9542 8.23143 11.7599 8.31935 11.6029 8.45692C11.4459 8.5945 11.3332 8.77555 11.2791 8.97717C11.225 9.1788 11.2319 9.39194 11.299 9.58963C11.366 9.78733 11.4902 9.9607 11.6558 10.0878C11.8214 10.2149 12.021 10.2901 12.2293 10.3037C12.4376 10.3174 12.6453 10.269 12.8261 10.1646V10.1667ZM8.72521 19.7026C8.5442 19.8072 8.39828 19.9631 8.3059 20.1506C8.21352 20.3381 8.17885 20.5488 8.20627 20.756C8.23369 20.9632 8.32197 21.1576 8.45994 21.3147C8.59791 21.4717 8.77936 21.5843 8.98133 21.6381C9.1833 21.692 9.39671 21.6847 9.59455 21.6172C9.79238 21.5498 9.96575 21.4251 10.0927 21.2591C10.2197 21.093 10.2945 20.893 10.3078 20.6844C10.321 20.4758 10.2721 20.2679 10.1672 20.0872C10.0261 19.8453 9.79512 19.669 9.5246 19.5968C9.25407 19.5245 8.96596 19.5622 8.7231 19.7016L8.72521 19.7026ZM9.78159 11.3826C9.66125 11.308 9.52714 11.2583 9.38722 11.2366C9.24731 11.2148 9.10445 11.2214 8.96713 11.2559C8.82981 11.2905 8.70084 11.3523 8.58789 11.4377C8.47493 11.5231 8.38029 11.6303 8.3096 11.753C8.2389 11.8757 8.1936 12.0113 8.17637 12.1519C8.15914 12.2924 8.17034 12.435 8.20931 12.5711C8.24828 12.7072 8.31422 12.8341 8.40321 12.9443C8.4922 13.0544 8.60242 13.1455 8.72733 13.2122C8.96908 13.339 9.25054 13.3673 9.51268 13.2912C9.77483 13.215 9.99733 13.0403 10.1335 12.8037C10.2697 12.5671 10.309 12.287 10.2432 12.0221C10.1774 11.7571 10.0116 11.528 9.78054 11.3826H9.78159ZM7.08149 16.4574C7.08177 16.7379 7.19345 17.0067 7.39195 17.2048C7.59046 17.403 7.85953 17.5141 8.13998 17.5138C8.42043 17.5135 8.68928 17.4019 8.88739 17.2034C9.0855 17.0048 9.19664 16.7358 9.19636 16.4553C9.19608 16.1749 9.0844 15.906 8.8859 15.7079C8.68739 15.5098 8.41832 15.3987 8.13787 15.3989C7.85742 15.3992 7.58857 15.5109 7.39046 15.7094C7.19235 15.9079 7.08121 16.177 7.08149 16.4574ZM15.4026 24.7785C15.4024 24.9174 15.4297 25.0549 15.4827 25.1833C15.5357 25.3116 15.6135 25.4283 15.7116 25.5266C15.8097 25.6249 15.9261 25.7029 16.0544 25.7561C16.1826 25.8094 16.3201 25.8369 16.459 25.837C16.5978 25.8372 16.7354 25.81 16.8637 25.7569C16.9921 25.7039 17.1087 25.6262 17.207 25.5281C17.3053 25.43 17.3833 25.3135 17.4366 25.1852C17.4898 25.057 17.5173 24.9195 17.5175 24.7806C17.5177 24.5002 17.4066 24.2311 17.2085 24.0326C17.0104 23.8341 16.7415 23.7224 16.4611 23.7222C16.1806 23.7219 15.9116 23.833 15.7131 24.0311C15.5145 24.2292 15.4029 24.4981 15.4026 24.7785ZM11.3841 23.1359C11.0936 23.6429 11.2679 24.2873 11.7708 24.5778C11.9517 24.6824 12.1596 24.731 12.3681 24.7174C12.5767 24.7038 12.7765 24.6287 12.9424 24.5015C13.1082 24.3743 13.2326 24.2007 13.2998 24.0028C13.3669 23.8049 13.3739 23.5915 13.3198 23.3897C13.2656 23.1878 13.1529 23.0065 12.9957 22.8688C12.8385 22.731 12.644 22.643 12.4368 22.6158C12.2296 22.5887 12.0189 22.6236 11.8315 22.7161C11.6442 22.8087 11.4885 22.9548 11.3841 23.1359ZM23.1374 11.3826C23.0125 11.4493 22.9023 11.5404 22.8133 11.6506C22.7243 11.7607 22.6584 11.8876 22.6194 12.0237C22.5804 12.1599 22.5692 12.3024 22.5864 12.443C22.6037 12.5835 22.649 12.7192 22.7197 12.8419C22.7904 12.9645 22.885 13.0718 22.998 13.1572C23.1109 13.2425 23.2399 13.3043 23.3772 13.3389C23.5145 13.3734 23.6574 13.38 23.7973 13.3583C23.9372 13.3365 24.0713 13.2869 24.1917 13.2122C24.4248 13.0677 24.5925 12.8382 24.6594 12.5722C24.7263 12.3062 24.6872 12.0247 24.5503 11.787C24.4133 11.5494 24.1894 11.3743 23.9257 11.2989C23.662 11.2234 23.3793 11.2534 23.1374 11.3826ZM22.7508 20.0893C22.6803 20.2095 22.6343 20.3424 22.6154 20.4804C22.5966 20.6185 22.6052 20.7589 22.6408 20.8935C22.6764 21.0282 22.7383 21.1545 22.8229 21.2652C22.9076 21.3759 23.0132 21.4687 23.1339 21.5384C23.2545 21.608 23.3878 21.6531 23.5259 21.6711C23.6641 21.6891 23.8044 21.6795 23.9389 21.643C24.0733 21.6065 24.1992 21.5438 24.3093 21.4584C24.4194 21.3731 24.5116 21.2668 24.5804 21.1456C24.7183 20.9031 24.7546 20.616 24.6816 20.3467C24.6085 20.0775 24.4319 19.8482 24.1903 19.7087C23.9487 19.5692 23.6618 19.5309 23.3921 19.6022C23.1224 19.6735 22.8918 19.8486 22.7508 20.0893ZM25.8375 16.4574C25.8375 15.8764 25.3642 15.4011 24.7811 15.4011C24.5722 15.4011 24.368 15.463 24.1942 15.5791C24.0205 15.6952 23.8851 15.8602 23.8052 16.0532C23.7252 16.2462 23.7043 16.4586 23.745 16.6635C23.7858 16.8684 23.8864 17.0567 24.0342 17.2044C24.1819 17.3521 24.3701 17.4528 24.575 17.4935C24.78 17.5343 24.9924 17.5134 25.1854 17.4334C25.3784 17.3534 25.5434 17.2181 25.6595 17.0443C25.7755 16.8706 25.8375 16.6664 25.8375 16.4574ZM19.7052 24.1922C19.7746 24.3122 19.8669 24.4174 19.9769 24.5017C20.0869 24.586 20.2124 24.6479 20.3463 24.6837C20.4802 24.7195 20.6199 24.7286 20.7573 24.7104C20.8947 24.6922 21.0272 24.6472 21.1472 24.5778C21.2672 24.5085 21.3723 24.4161 21.4567 24.3061C21.541 24.1961 21.6028 24.0706 21.6386 23.9367C21.6744 23.8028 21.6835 23.6632 21.6653 23.5258C21.6472 23.3883 21.6021 23.2559 21.5328 23.1359C21.4639 23.0148 21.3718 22.9085 21.2617 22.8231C21.1516 22.7377 21.0257 22.675 20.8912 22.6385C20.7568 22.602 20.6164 22.5925 20.4783 22.6104C20.3401 22.6284 20.2069 22.6735 20.0862 22.7431C19.9656 22.8128 19.8599 22.9056 19.7753 23.0163C19.6906 23.127 19.6287 23.2533 19.5931 23.388C19.5575 23.5227 19.5489 23.6631 19.5678 23.8011C19.5867 23.9391 19.6327 24.0721 19.7031 24.1922H19.7052ZM20.0919 10.1678C20.3346 10.3074 20.6229 10.3449 20.8933 10.272C21.1638 10.1991 21.3941 10.0218 21.5338 9.77901C21.6735 9.53624 21.711 9.24794 21.6381 8.97752C21.5652 8.7071 21.3878 8.47672 21.1451 8.33705C20.9031 8.20787 20.6204 8.17784 20.3568 8.25332C20.0931 8.3288 19.8691 8.50387 19.7322 8.7415C19.5953 8.97914 19.5561 9.26071 19.623 9.52668C19.69 9.79265 19.8577 10.0222 20.0908 10.1667L20.0919 10.1678ZM30.4053 15.2574C29.7398 7.55428 22.9578 1.84771 15.2568 2.5069C11.957 2.79235 8.86697 4.24483 6.54168 6.60353L4.66978 5.02953L3.28803 12.8076L10.7144 10.116L8.9872 8.66136C10.7599 6.94209 13.0704 5.88533 15.5304 5.66864C18.391 5.42561 21.2312 6.32747 23.4276 8.17628C25.624 10.0251 26.9971 12.6698 27.2457 15.5299C27.4887 18.3902 26.5871 21.2301 24.7388 23.4264C22.8904 25.6228 20.2462 26.9961 17.3865 27.2452C11.4253 27.748 6.18885 23.3429 5.66911 17.386C5.56136 16.1131 5.69024 14.8782 5.99659 13.7098L2.54223 14.9637C2.44715 15.8426 2.43025 16.7427 2.51054 17.6575C3.17394 25.3585 9.95484 31.0629 17.659 30.4038C25.36 29.7382 31.0676 22.9584 30.4074 15.2553L30.4053 15.2574Z" fill="#5686E1"/>
</svg>
