<svg width="30" height="30" viewBox="0 0 30 30" fill="none" xmlns="http://www.w3.org/2000/svg">
<g clip-path="url(#clip0_657_2973)">
<path d="M25 18.1249C25.4973 18.1249 25.9742 18.3224 26.3258 18.6741C26.6775 19.0257 26.875 19.5026 26.875 19.9999V24.9999C26.875 25.8287 26.5458 26.6236 25.9597 27.2096C25.3737 27.7957 24.5788 28.1249 23.75 28.1249H6.25C5.4212 28.1249 4.62634 27.7957 4.04029 27.2096C3.45424 26.6236 3.125 25.8287 3.125 24.9999V19.9999C3.125 19.5026 3.32254 19.0257 3.67417 18.6741C4.02581 18.3224 4.50272 18.1249 5 18.1249C5.49728 18.1249 5.97419 18.3224 6.32583 18.6741C6.67746 19.0257 6.875 19.5026 6.875 19.9999V24.3749H23.125V19.9999C23.125 19.5026 23.3225 19.0257 23.6742 18.6741C24.0258 18.3224 24.5027 18.1249 25 18.1249ZM16.5463 3.89989L21.6287 8.98364C21.8078 9.15661 21.9507 9.3635 22.0489 9.59226C22.1472 9.82102 22.1989 10.0671 22.2011 10.316C22.2033 10.565 22.1558 10.8119 22.0615 11.0423C21.9673 11.2727 21.828 11.4821 21.652 11.6581C21.4759 11.8342 21.2666 11.9734 21.0362 12.0677C20.8057 12.162 20.5588 12.2094 20.3099 12.2072C20.0609 12.2051 19.8149 12.1534 19.5861 12.0551C19.3574 11.9568 19.1505 11.814 18.9775 11.6349L16.875 9.53239V19.9999C16.875 20.4972 16.6775 20.9741 16.3258 21.3257C15.9742 21.6773 15.4973 21.8749 15 21.8749C14.5027 21.8749 14.0258 21.6773 13.6742 21.3257C13.3225 20.9741 13.125 20.4972 13.125 19.9999V9.53239L11.0225 11.6349C10.8495 11.814 10.6426 11.9568 10.4139 12.0551C10.1851 12.1534 9.93909 12.2051 9.69013 12.2072C9.44117 12.2094 9.19427 12.162 8.96384 12.0677C8.73341 11.9734 8.52406 11.8342 8.34801 11.6581C8.17196 11.4821 8.03274 11.2727 7.93846 11.0423C7.84418 10.8119 7.79674 10.565 7.79891 10.316C7.80107 10.0671 7.85279 9.82102 7.95106 9.59226C8.04933 9.3635 8.19217 9.15661 8.37125 8.98364L13.4537 3.90114C13.8639 3.49124 14.4201 3.26099 15 3.26099C15.5799 3.26099 16.1361 3.49124 16.5463 3.90114V3.89989Z" fill="#5686E1"/>
</g>
<defs>
<clipPath id="clip0_657_2973">
<rect width="30" height="30" fill="white"/>
</clipPath>
</defs>
</svg>
